#!OML:ASF E:/inclinewalkrobotboard/Project1/Captureday1/Session1/subject1.ASF
:FULLY-SPECIFIED
:DEGREES
363
root 0 0 0 -2.0906380158101454 -5.970147029858838 -6.583495012517163
lowerback 11.776492829827065 2.5257802443816844 6.14349420053273
upperback 1.6220866183244547 4.132728158038364 1.5726564927587114
thorax -4.706936778068122 1.916377853898844 -2.3859743973263683
lowerneck -16.866480015488506 -3.5702269129709325 -2.211182392766625
upperneck 21.164502199147027 -4.685070286582714 1.0254074007530303
head 9.472696941240212 -2.2312461755410586 0.09328320066733242
rclavicle -3.445124473464351E-15 1.6889851305045992E-15
rhumerus -28.69090941629924 -13.730796846321454 -82.60615453692034
rradius 28.861291736038215
rwrist 9.044334707363163
rhand -20.190824955019806 29.756030473686913
rfingers 7.125020000000002
rthumb 6.177138849831043 -0.2696286109065653
lclavicle -7.447053426268904E-15 9.108011142291556E-16
lhumerus -30.605676053947676 0.5615065883293098 85.53197231587441
lradius 24.02347894497636
lwrist 5.015687211270265
lhand -28.0160960286062 26.718809215834323
lfingers 7.125020000000046
lthumb -1.4101728597628984 56.75644678875901
rfemur 0.5103559719594282 7.45846917885528 32.41711213743678
rtibia 28.523422977387998
rfoot -16.869578666191124 -5.804295071530573
rtoes -0.8252068452254961
lfemur -26.738276433347103 -3.181847914997538 -13.61850169631176
ltibia 23.637480924101986
lfoot -8.301750730009164 4.384445279695265
ltoes -2.4418038253883907
364
root 0 0 0 -2.1591224289433772 -5.913736400029713 -6.1619184025384985
lowerback 11.762799266767873 2.582772509756332 5.870945923935234
upperback 1.7029284780700458 4.149687324513425 1.353244391831527
thorax -4.6222284192937275 1.9286556133752306 -2.4594068928840294
lowerneck -16.724837596942344 -3.5998463522255895 -2.306885487414018
upperneck 20.68412265573335 -4.760655906880066 1.2178654997472045
head 9.237847660792307 -2.2565104450693685 0.16930871444088486
rclavicle -2.9788162694931317E-15 1.6872570501418051E-15
rhumerus -28.91809478418086 -14.712635381471491 -82.61968032733971
rradius 28.57817717405105
rwrist 10.01227953672629
rhand -20.32240872573969 29.394650661098225
rfingers 7.1250199999999975
rthumb 6.050040874627589 -0.662228771826868
lclavicle -7.120489181505924E-15 9.047575797510031E-16
lhumerus -31.03191036470553 1.2186482151344022 84.97177786516933
lradius 23.53445061408808
lwrist 4.629257336894594
lhand -27.980545403934286 26.809906345777275
lfingers 7.125020000000046
lthumb -1.3774369690419679 56.83555811250599
rfemur 0.7214173904516992 6.6704897349553605 29.615375697819907
rtibia 27.46929007465043
rfoot -14.35059033754293 -4.882150796027946
rtoes -1.4077747775447265
lfemur -24.58502593396025 -3.629521645985806 -14.897120910247198
ltibia 22.20410087150877
lfoot -8.653745025077434 4.087639859731743
ltoes -0.3701917367926626
365
root 0 0 0 -2.306190468297732 -5.7836354698999966 -5.570997783756596
lowerback 11.712499875263626 2.61495058506871 5.400281971119422
upperback 1.8261119805539665 4.11655858420783 1.144454222273719
thorax -4.468269323725258 1.9204906065088239 -2.400614407803174
lowerneck -16.568888872100235 -3.6392474269185575 -2.4485571296753568
upperneck 20.45757362840961 -4.845296431609071 1.45603387327058
head 9.090243873695703 -2.2834206415434957 0.2632358548332806
rclavicle -2.509924021502817E-15 1.6827312413076902E-15
rhumerus -29.189411292336768 -15.754417397385428 -82.55279651686199
rradius 28.07412640861597
rwrist 10.948411378540385
rhand -20.33031013766341 28.95640533510295
rfingers 7.125019999999995
rthumb 6.042175920720946 -1.1118589598151303
lclavicle -6.642301124724272E-15 9.604955603949335E-16
lhumerus -31.727927868415513 2.071943252438495 84.31876285524409
lradius 22.939152512139557
lwrist 4.143609265546036
lhand -27.877649768870725 26.877567067303126
lfingers 7.125020000000047
lthumb -1.2800424755165052 56.88415598985752
rfemur 0.601470556190077 5.35125248673974 26.42971236807093
rtibia 31.18264575169843
rfoot -9.202940312137315 -3.4619606510473298
rtoes 0.16356390362304163
lfemur -22.609189793343536 -3.821527206769203 -15.776327266968114
ltibia 21.699514312893225
lfoot -8.978307488065496 3.756074370545055
ltoes 0.15529387029561192
366
root 0 0 0 -2.6745405114128578 -5.50506561413214 -4.386462095748027
lowerback 11.78926373925178 2.55134544734083 4.29779640994357
upperback 2.0901684435473116 3.8916480390505575 0.9097737833756949
thorax -4.233965226188765 1.8309081322346026 -1.9839771576720522
lowerneck -16.344082935721584 -3.6866163443996847 -2.626720332593484
upperneck 20.71375280047771 -4.925962342460429 1.6944222992834792
head 9.107851174782123 -2.3066434979275146 0.35720771947176916
rclavicle -2.2550769380293873E-15 1.709608360583974E-15
rhumerus -29.60161110814009 -16.951764429057093 -82.37284770683411
rradius 27.32567169953407
rwrist 11.74815867513703
rhand -20.246880617377066 28.434584155029185
rfingers 7.125019999999995
rthumb 6.1229665739046295 -1.633463888795795
lclavicle -6.2746338502035806E-15 1.0138665510647686E-15
lhumerus -32.63825978698325 3.0767786132067556 83.67186683125935
lradius 22.218414445520256
lwrist 3.580517968586813
lhand -27.721382979349183 26.940944406075722
lfingers 7.12502000000005
lthumb -1.1322380452638061 56.922271742950784
rfemur -1.5524456814701262 3.117203284576333 22.79399829946285
rtibia 43.468444245799354
rfoot -0.15466390186601586 -1.665216487282299
rtoes 5.1780895112004615
lfemur -19.83016233202868 -3.8867254548427717 -16.918457254357477
ltibia 21.432914327215993
lfoot -9.311913404501732 3.1553862486345525
ltoes 0.10259087345514217
367
root 0 0 0 -4.2170506459661 -4.941854308019188 -0.9777748869633855
lowerback 13.437895472770292 1.8982677947771007 0.8087426602644396
upperback 2.728728770497532 2.6197102634037757 0.46693313760679855
thorax -4.519975743646905 1.2728582850242713 -0.29898824786191147
lowerneck -15.824246297275574 -3.6882825539760002 -2.5786694519263613
upperneck 17.581652032957674 -4.80879448036939 1.7323430268948692
head 8.042675317065886 -2.2844977244124647 0.4076238469093612
rclavicle -2.7070770711068743E-15 1.913839059885E-15
rhumerus -30.243445865655612 -18.374344098038353 -82.11151511653824
rradius 26.288328435444008
rwrist 12.324762445286837
rhand -20.119106058492708 27.851216564855804
rfingers 7.125019999999996
rthumb 6.247443164451724 -2.2104504912609144
lclavicle -6.702311293030402E-15 1.1972040111386455E-15
lhumerus -32.77781815875625 3.327746552841366 83.44929841116465
lradius 22.026231710206876
lwrist 3.449479442657715
lhand -27.726559224048046 26.96633462314713
lfingers 7.125020000000051
lthumb -1.141187194461672 56.94199105004887
rfemur -13.010825413660136 1.4561559437257896 21.681011281142283
rtibia 58.55826993167318
rfoot 4.9619591182575515 -3.102560120084307
rtoes 9.41926259481265
lfemur -12.315715917918993 -4.081680022681808 -20.26373331410492
ltibia 20.279789282117342
lfoot -10.795495209132811 1.9467155341706555
ltoes -0.1708991196452665
368
root 0 0 0 -5.211253392737802 -4.1508657835981575 2.3011093700936507
lowerback 13.565914858492585 1.1235810495353968 -2.5704348535038877
upperback 2.4601685976250973 1.1937168720550204 0.13829029035506535
thorax -4.884518953775716 0.6459600277419203 1.4715816564893687
lowerneck -15.346145595671432 -3.3985682795313705 -2.497607318631523
upperneck 16.949355906272984 -4.406491501469427 1.9512753021134732
head 7.81884427809411 -2.078590586737393 0.5279235568099265
rclavicle -2.7186440456828143E-15 2.8271029433640843E-15
rhumerus -30.712886704211815 -20.01424299209275 -81.61886724503361
rradius 25.42906518271326
rwrist 12.652356199517577
rhand -20.014904485742 27.179358960790793
rfingers 7.1250199999999975
rthumb 6.348684962872738 -2.8884090880684
lclavicle -6.602681170226785E-15 2.3649119614071666E-15
lhumerus -30.867435088495633 1.5022940878615747 83.70425984729704
lradius 23.75783392843403
lwrist 4.59106109909539
lhand -28.156829266920425 26.81220230767311
lfingers 7.1250200000000445
lthumb -1.5555093137788472 56.8391484268689
rfemur -21.08165785246342 -0.13423880657928144 17.553599789602348
rtibia 61.19979182255438
rfoot 6.581202338457048 -4.394241938157767
rtoes 9.548947949435252
lfemur -0.10622224764299748 -4.53902621278416 -25.743661632545965
ltibia 18.438290967721493
lfoot -14.433532747787284 0.7759813248377658
ltoes -0.5005389794045705
369
root 0 0 0 -3.7402360900635747 -2.728598153976357 3.7094256310365146
lowerback 13.102542659677756 0.30327850937287026 -4.065513099979693
upperback 2.2462426922646808 -0.11223717844009973 0.16389309304779587
thorax -4.848568191237873 0.04919461544183634 2.5028080521053364
lowerneck -14.677743357822928 -2.9005889144615224 -2.744687377879376
upperneck 16.2469459993747 -3.6376260242352867 2.0707140936993875
head 7.433568397950491 -1.756699541845696 0.7161134430615446
rclavicle -8.101703849248428E-16 3.6631346092640756E-15
rhumerus -30.94418184050306 -21.30002656906791 -81.08121086475177
rradius 24.90053528827587
rwrist 12.456147250790586
rhand -19.92281586016899 26.56768427599941
rfingers 7.125020000000001
rthumb 6.436767710223691 -3.5067507781050864
lclavicle -5.965943566055142E-16 3.6879446029400346E-15
lhumerus -28.44940096550957 -2.3320149193634423 83.68836830065045
lradius 28.4358883369435
lwrist 7.109177601483697
lhand -28.353376478332983 26.108903810273564
lfingers 7.125020000000033
lthumb -1.7440027425056943 56.118491525783995
rfemur -24.246436924298298 -0.5763433134951872 15.628907256389429
rtibia 58.89725836147031
rfoot 5.70341962249284 -5.159339840420722
rtoes 8.50437170149801
lfemur 5.123889587603139 -5.03750417840198 -27.86147628421898
ltibia 18.209270049836483
lfoot -16.58346742507406 0.7130069276045838
ltoes 0.2133228180085105
